<svg xmlns="http://www.w3.org/2000/svg" viewBox="0 0 71 32"><path d="M63.2.6c0-.1 0-.2-.1-.2H.1S0 .5 0 .6c.3.7 1.9 2.6 6.1 2.6h4.1c.2 0 .2.1.3.2 1.7 2.9 4 7.6 5.2 13.2 1.8 8.4 1.4 14.3 1.3 15.3 0 .1.1.1.1.1h9.1s.2-15.8-2.9-28.7h4.3s1.7 8.5 1.7 28.7h9.3c.8-19.5 2-28.7 2-28.7H45c-3 12-3.2 28.7-3.2 28.7h9.1c.1 0 .1 0 .1-.1-.1-1-.4-7.4 1.3-15.3C53.5 11 55.5 6.7 57.4 4c.3-.4.5-.7.7-.7h1.1c2.3 0 3.7-2 4-2.7M71 3c0 1.7-1.3 3-3.1 3-1.7 0-3.1-1.3-3.1-3s1.4-3 3.1-3C69.7 0 71 1.3 71 3zm-5.4 0c0 1.3 1 2.4 2.3 2.4 1.3 0 2.3-1.1 2.3-2.4 0-1.3-1-2.4-2.3-2.4-1.3 0-2.3 1.1-2.3 2.4zm1.9 1.6h-.7v-3c.3-.1.7-.1 1.2-.1.6 0 .8.1 1 .2.2.1.3.4.3.7 0 .3-.3.6-.6.7.3.1.5.3.5.7.1.5.1.6.2.8h-.7c-.1-.1-.1-.4-.2-.7-.1-.3-.2-.5-.6-.5h-.3v1.2zm0-1.7h.3c.4 0 .7-.1.7-.4 0-.3-.2-.5-.6-.5h-.4v.9z" fill="#b29659"/></svg>